<?xml version="1.0" encoding="UTF-8" standalone="no"?>
<svg
   id="Layer_1"
   data-name="Layer 1"
   viewBox="0 0 930.90909 436.36364"
   version="1.1"
   sodipodi:docname="Imagotipo AWS - RGB-04.svg"
   width="1024"
   height="480"
   inkscape:version="1.3.2 (091e20e, 2023-11-25)"
   xmlns:inkscape="http://www.inkscape.org/namespaces/inkscape"
   xmlns:sodipodi="http://sodipodi.sourceforge.net/DTD/sodipodi-0.dtd"
   xmlns="http://www.w3.org/2000/svg"
   xmlns:svg="http://www.w3.org/2000/svg">
  <sodipodi:namedview
     id="namedview18"
     pagecolor="#ffffff"
     bordercolor="#000000"
     borderopacity="0.25"
     inkscape:showpageshadow="2"
     inkscape:pageopacity="0.0"
     inkscape:pagecheckerboard="0"
     inkscape:deskcolor="#d1d1d1"
     inkscape:zoom="0.51699964"
     inkscape:cx="242.74679"
     inkscape:cy="313.34645"
     inkscape:window-width="1920"
     inkscape:window-height="1027"
     inkscape:window-x="0"
     inkscape:window-y="25"
     inkscape:window-maximized="1"
     inkscape:current-layer="Layer_1" />
  <defs
     id="defs1">
    <style
       id="style1">.cls-1{fill:#fe5000;}.cls-2{fill:#004c97;}.cls-3{fill:none;}</style>
  </defs>
  <path
     d="m 392.45297,335.77939 c 0,-9.08 7,-15.64 16.3,-15.64 5,0 9.22,1.78 12,5.08 l -3.65,3.44 a 10.66,10.66 0 0 0 -8.13,-3.57 c -6.3,0 -10.86,4.43 -10.86,10.69 0,6.26 4.56,10.7 10.86,10.7 a 10.59,10.59 0 0 0 8.13,-3.61 l 3.65,3.48 c -2.82,3.3 -7.08,5.08 -12.08,5.08 -9.26,0 -16.22,-6.52 -16.22,-15.65 z"
     id="path1" />
  <path
     d="m 448.79297,343.95939 h -15.22 l -3,7 h -5.82 l 13.69,-30.43 h 5.55 l 13.74,30.43 h -5.91 z m -1.87,-4.44 -5.74,-13.3 -5.69,13.3 z"
     id="path2" />
  <path
     d="m 484.99297,350.99939 -6.22,-8.91 a 11.43,11.43 0 0 1 -1.17,0 h -6.87 v 8.87 h -5.64 v -30.39 h 12.52 c 8,0 13,4.09 13,10.82 a 9.73,9.73 0 0 1 -6.48,9.61 l 7,10 z m -7.65,-25.65 h -6.61 v 12.13 h 6.61 c 4.95,0 7.51,-2.26 7.51,-6.09 0,-3.83 -2.55,-6.04 -7.5,-6.04 z"
     id="path3" />
  <path
     d="m 521.12297,335.43939 h 5.34 v 12.12 a 19.21,19.21 0 0 1 -11.91,3.87 c -9.43,0 -16.38,-6.56 -16.38,-15.65 0,-9.09 7,-15.64 16.47,-15.64 5.09,0 9.35,1.69 12.22,4.95 l -3.57,3.48 a 11.3,11.3 0 0 0 -8.39,-3.48 c -6.47,0 -11,4.39 -11,10.69 0,6.3 4.57,10.7 11,10.7 a 12.32,12.32 0 0 0 6.26,-1.57 z"
     id="path4" />
  <path
     d="m 535.20297,335.77939 c 0,-9 7,-15.64 16.39,-15.64 9.39,0 16.4,6.6 16.4,15.64 0,9.04 -7,15.65 -16.38,15.65 -9.38,0 -16.41,-6.65 -16.41,-15.65 z m 27.08,0 a 10.69,10.69 0 1 0 -10.69,10.7 10.37,10.37 0 0 0 10.69,-10.7 z"
     id="path5" />
  <path
     class="cls-1"
     d="m 615.75297,351.46939 -3.83,-3.69 a 15.36,15.36 0 0 1 -10.21,3.65 c -6.44,0 -11.09,-3.35 -11.09,-8.13 0,-3.78 2.09,-6.43 7,-9.21 -2.47,-2.48 -3.39,-4.48 -3.39,-6.69 0,-4.27 3.48,-7.18 8.83,-7.18 4.91,0 8.13,2.57 8.13,6.7 0,3.13 -1.83,5.39 -6.22,7.86 l 6.56,6.26 a 19.55,19.55 0 0 0 1.7,-5.13 l 4.39,1.44 a 20.84,20.84 0 0 1 -2.74,6.95 l 3.82,3.65 z m -7,-6.78 -8,-7.69 c -3.52,2 -4.73,3.56 -4.73,5.74 0,2.52 2.43,4.26 6.17,4.26 a 10.14,10.14 0 0 0 6.51,-2.31 z m -9.47,-17.38 c 0,1.35 0.56,2.35 2.74,4.52 3.52,-1.91 4.65,-3.17 4.65,-4.83 0,-1.66 -1.26,-2.91 -3.52,-2.91 -2.49,0 -3.92,1.35 -3.92,3.22 z"
     id="path6" />
  <path
     d="m 640.39297,335.77939 c 0,-9.08 7,-15.64 16.3,-15.64 5,0 9.22,1.78 12,5.08 l -3.65,3.44 a 10.66,10.66 0 0 0 -8.13,-3.57 c -6.3,0 -10.86,4.43 -10.86,10.69 0,6.26 4.56,10.7 10.86,10.7 a 10.59,10.59 0 0 0 8.13,-3.61 l 3.65,3.48 c -2.82,3.3 -7.08,5.08 -12.08,5.08 -9.26,0 -16.22,-6.52 -16.22,-15.65 z"
     id="path7" />
  <path
     d="m 674.82297,335.77939 c 0,-9 6.95,-15.64 16.39,-15.64 9.44,0 16.37999,6.6 16.37999,15.64 0,9.04 -6.99999,15.65 -16.37999,15.65 -9.38,0 -16.39,-6.65 -16.39,-15.65 z m 27.08,0 a 10.7,10.7 0 1 0 -10.69,10.7 10.37,10.37 0 0 0 10.69,-10.7 z"
     id="path8" />
  <path
     d="m 716.81296,337.73939 v -17.17 h 5.65 v 17 c 0,6.26 2.83,9 7.74,9 4.91,0 7.69,-2.7 7.69,-9 v -17 h 5.56 v 17.17 c 0,8.87 -5,13.69 -13.3,13.69 -8.3,0 -13.34,-4.82 -13.34,-13.69 z"
     id="path9" />
  <path
     d="m 774.75296,350.99939 -6.22,-8.91 a 11.43,11.43 0 0 1 -1.17,0 h -6.87 v 8.87 h -5.65 v -30.39 h 12.52 c 8,0 13,4.09 13,10.82 a 9.73,9.73 0 0 1 -6.47,9.61 l 7,10 z m -7.65,-25.65 h -6.61 v 12.13 h 6.61 c 4.95,0 7.52,-2.26 7.52,-6.09 0,-3.83 -2.57,-6.04 -7.52,-6.04 z"
     id="path10" />
  <path
     d="m 790.10296,320.56939 h 5.65 v 30.43 h -5.65 z"
     id="path11" />
  <path
     d="m 830.26296,346.25939 v 4.74 h -22.82 v -30.43 h 22.21 v 4.74 h -16.56 v 7.91 h 14.69 v 4.69 h -14.69 v 8.39 z"
     id="path12" />
  <path
     d="m 859.99296,350.99939 -6.22,-8.91 a 11.43,11.43 0 0 1 -1.17,0 h -6.87 v 8.87 h -5.65 v -30.39 h 12.52 c 8,0 12.95,4.09 12.95,10.82 a 9.73,9.73 0 0 1 -6.48,9.61 l 7,10 z m -7.65,-25.65 h -6.61 v 12.13 h 6.61 c 5,0 7.52,-2.26 7.52,-6.09 0,-3.83 -2.61,-6.04 -7.56,-6.04 z"
     id="path13" />
  <path
     d="m 444.87297,87.309391 h -18.64 a 36.14,36.14 0 0 0 -34,23.759999 l -57.68,158.14999 h 33.92 l 11.63,-31.84 h 85.11 l 11.51,31.84 h 33.88 z m -53.15,118.199999 31.15,-85.34 30.82,85.34 z"
     id="path14" />
  <path
     d="m 478.88297,87.309391 65.73,181.909989 h 26.48 l 41.58,-113.90999 41.16,113.90999 h 26.43 L 746.66296,87.309391 h -8.79 a 36,36 0 0 0 -33.77,23.599999 l -36.91999,101.23 -45.26,-124.829999 h -18.35 l -45.58,124.889999 -36.56,-101.16 a 36,36 0 0 0 -33.81,-23.729999 z"
     id="path15" />
  <path
     d="m 923.99296,87.309391 -4,10.929999 a 33.33,33.33 0 0 1 -31.32,21.91 h -71.47 a 21.14,21.14 0 0 0 -19.86,13.89 v 0 a 21.15,21.15 0 0 0 19.86,28.4 h 36.79 a 53.39,53.39 0 0 1 50.15,71.69999 v 0 a 53.39,53.39 0 0 1 -50.15,35.08 h -139.78 l 11.63,-31.85 h 128.26 a 21.54,21.54 0 0 0 20.23,-14.14999 v 0 a 21.53,21.53 0 0 0 -20.23,-28.92 h -36.11 a 53.5,53.5 0 0 1 -50.25,-71.84 v 0 a 53.48,53.48 0 0 1 50.25,-35.149999 z"
     id="path16" />
  <path
     class="cls-2"
     d="m 150.99297,164.17939 -29.21,-29.2 a 7,7 0 0 0 -9.86,0 l -100.28,100.26999 a 7.08,7.08 0 0 0 0,10 l 19.09,19.09 a 7.24,7.24 0 0 1 0,10.23 l -19.18,19.18001 a 7,7 0 0 0 0,9.84 l 100.44,100.41 a 6.92,6.92 0 0 0 9.8,0 l 29.2,-29.26 a 6.94,6.94 0 0 0 0,-9.8 L 60.642965,274.58938 a 7.24,7.24 0 0 1 0,-10.23 l 90.350005,-90.30999 a 7,7 0 0 0 0,-9.87 z"
     id="path17" />
  <path
     class="cls-1"
     d="m 138.87297,274.59938 29.21,29.20001 a 7,7 0 0 0 9.86,0 l 100.27,-100.27 a 7.08,7.08 0 0 0 0,-10 l -19.09,-19.09 a 7.24,7.24 0 0 1 0,-10.23 l 19.18,-19.18 a 7,7 0 0 0 0,-9.84 l -100.39,-100.409996 a 6.92,6.92 0 0 0 -9.8,0 l -29.27,29.26 a 7,7 0 0 0 0,9.81 l 90.35,90.339996 a 7.24,7.24 0 0 1 0,10.23 l -90.32,90.31999 a 7,7 0 0 0 0,9.86 z"
     id="path18" />
  <rect
     class="cls-3"
     x="-45.047031"
     y="-21.810608"
     width="1023.55"
     height="482.41"
     id="rect18" />
</svg>
